<svg width="25" height="22" viewBox="0 0 25 22" fill="none" xmlns="http://www.w3.org/2000/svg">
<path d="M16.5556 17.6667L18.7778 19.8889L23.2222 15.4444M12.1111 14.3333H7.66667C5.59582 14.3333 4.56039 14.3333 3.74363 14.6716C2.65462 15.1227 1.7894 15.9879 1.33831 17.077C1 17.8937 1 18.9291 1 21M16 1.32307C17.6288 1.98238 18.7778 3.57923 18.7778 5.44444C18.7778 7.30965 17.6288 8.9065 16 9.56582M13.7778 5.44444C13.7778 7.89904 11.7879 9.88889 9.33333 9.88889C6.87873 9.88889 4.88889 7.89904 4.88889 5.44444C4.88889 2.98985 6.87873 1 9.33333 1C11.7879 1 13.7778 2.98985 13.7778 5.44444Z" stroke="white" stroke-width="2" stroke-linecap="round" stroke-linejoin="round"/>
</svg>
