<svg width="19" height="18" viewBox="0 0 19 18" fill="none" xmlns="http://www.w3.org/2000/svg">
<path d="M8.55721 3.81924C8.86202 3.77417 9.17645 3.75 9.50031 3.75C13.3291 3.75 15.8415 7.12863 16.6855 8.46512C16.7877 8.62688 16.8388 8.70776 16.8673 8.8325C16.8888 8.92619 16.8888 9.074 16.8673 9.16768C16.8387 9.29243 16.7873 9.37384 16.6844 9.53668C16.4595 9.89261 16.1166 10.3928 15.6624 10.9353M5.54324 5.03628C3.92169 6.13628 2.82084 7.66453 2.31583 8.46396C2.21321 8.6264 2.16191 8.70762 2.1333 8.83236C2.11182 8.92605 2.11181 9.07383 2.13328 9.16752C2.16187 9.29226 2.21295 9.37313 2.3151 9.53488C3.15916 10.8714 5.67156 14.25 9.50031 14.25C11.0441 14.25 12.3739 13.7007 13.4666 12.9575M2.75031 2.25L16.2503 15.75M7.90932 7.40901C7.50215 7.81618 7.25031 8.37868 7.25031 9C7.25031 10.2426 8.25767 11.25 9.50031 11.25C10.1216 11.25 10.6841 10.9982 11.0913 10.591" stroke="#9497B8" stroke-width="1.6" stroke-linecap="round" stroke-linejoin="round"/>
</svg>
