<svg width="32" height="32" viewBox="0 0 32 32" fill="none" xmlns="http://www.w3.org/2000/svg">
<path d="M23.9667 26.6333L18.7333 21.6C18.0667 22.1333 17.3 22.5556 16.4333 22.8667C15.5667 23.1778 14.6444 23.3333 13.6667 23.3333C11.2444 23.3333 9.19467 22.4947 7.51733 20.8173C5.83911 19.1391 5 17.0889 5 14.6667C5 12.2444 5.83911 10.1942 7.51733 8.516C9.19467 6.83867 11.2444 6 13.6667 6C16.0889 6 18.1391 6.83867 19.8173 8.516C21.4947 10.1942 22.3333 12.2444 22.3333 14.6667C22.3333 15.6444 22.1778 16.5667 21.8667 17.4333C21.5556 18.3 21.1333 19.0667 20.6 19.7333L25.8667 24.8C26.1111 25.0444 26.2333 25.3444 26.2333 25.7C26.2333 26.0556 26.1 26.3667 25.8333 26.6333C25.5889 26.8778 25.2778 27 24.9 27C24.5222 27 24.2111 26.8778 23.9667 26.6333ZM13.6667 20.6667C15.3333 20.6667 16.7502 20.0836 17.9173 18.9173C19.0836 17.7502 19.6667 16.3333 19.6667 14.6667C19.6667 13 19.0836 11.5831 17.9173 10.416C16.7502 9.24978 15.3333 8.66667 13.6667 8.66667C12 8.66667 10.5831 9.24978 9.416 10.416C8.24978 11.5831 7.66667 13 7.66667 14.6667C7.66667 16.3333 8.24978 17.7502 9.416 18.9173C10.5831 20.0836 12 20.6667 13.6667 20.6667Z" fill="#646896"/>
</svg>
