<svg width="120" height="120" viewBox="0 0 120 120" fill="none" xmlns="http://www.w3.org/2000/svg">
<g filter="url(#filter0_dd_220_22506)">
<g clip-path="url(#clip0_220_22506)">
<rect x="10" y="6" width="100" height="100" rx="50" fill="#F2F4F7"/>
<g opacity="0.08">
<rect x="10.5" y="6.5" width="99" height="99" rx="49.5" stroke="black"/>
</g>
<path d="M76.6663 74.75C76.6663 71.8426 76.6663 70.3888 76.3075 69.2059C75.4996 66.5426 73.4154 64.4584 70.7521 63.6505C69.5691 63.2917 68.1154 63.2917 65.208 63.2917H54.7913C51.8839 63.2917 50.4302 63.2917 49.2473 63.6505C46.584 64.4584 44.4998 66.5426 43.6918 69.2059C43.333 70.3888 43.333 71.8426 43.333 74.75M69.3747 46.625C69.3747 51.8027 65.1773 56 59.9997 56C54.822 56 50.6247 51.8027 50.6247 46.625C50.6247 41.4473 54.822 37.25 59.9997 37.25C65.1773 37.25 69.3747 41.4473 69.3747 46.625Z" stroke="#475467" stroke-width="5" stroke-linecap="round" stroke-linejoin="round"/>
</g>
<rect x="8" y="4" width="104" height="104" rx="52" stroke="white" stroke-width="4"/>
</g>
<defs>
<filter id="filter0_dd_220_22506" x="0" y="0" width="120" height="120" filterUnits="userSpaceOnUse" color-interpolation-filters="sRGB">
<feFlood flood-opacity="0" result="BackgroundImageFix"/>
<feColorMatrix in="SourceAlpha" type="matrix" values="0 0 0 0 0 0 0 0 0 0 0 0 0 0 0 0 0 0 127 0" result="hardAlpha"/>
<feMorphology radius="2" operator="erode" in="SourceAlpha" result="effect1_dropShadow_220_22506"/>
<feOffset dy="2"/>
<feGaussianBlur stdDeviation="2"/>
<feComposite in2="hardAlpha" operator="out"/>
<feColorMatrix type="matrix" values="0 0 0 0 0.0627451 0 0 0 0 0.0941176 0 0 0 0 0.156863 0 0 0 0.06 0"/>
<feBlend mode="normal" in2="BackgroundImageFix" result="effect1_dropShadow_220_22506"/>
<feColorMatrix in="SourceAlpha" type="matrix" values="0 0 0 0 0 0 0 0 0 0 0 0 0 0 0 0 0 0 127 0" result="hardAlpha"/>
<feMorphology radius="2" operator="erode" in="SourceAlpha" result="effect2_dropShadow_220_22506"/>
<feOffset dy="4"/>
<feGaussianBlur stdDeviation="4"/>
<feComposite in2="hardAlpha" operator="out"/>
<feColorMatrix type="matrix" values="0 0 0 0 0.0627451 0 0 0 0 0.0941176 0 0 0 0 0.156863 0 0 0 0.1 0"/>
<feBlend mode="normal" in2="effect1_dropShadow_220_22506" result="effect2_dropShadow_220_22506"/>
<feBlend mode="normal" in="SourceGraphic" in2="effect2_dropShadow_220_22506" result="shape"/>
</filter>
<clipPath id="clip0_220_22506">
<rect x="10" y="6" width="100" height="100" rx="50" fill="white"/>
</clipPath>
</defs>
</svg>
